<svg xmlns="http://www.w3.org/2000/svg" xmlns:xlink="http://www.w3.org/1999/xlink" aria-hidden="true" version="1.1" style="position:absolute;width:0;height:0;overflow:hidden"><defs><symbol id="i-embed" viewBox="0 0 40 32"><path d="M26 23l3 3 10-10-10-10-3 3 7 7z"/><path d="M14 9l-3-3-10 10 10 10 3-3-7-7z"/><path d="M21.916 4.704l2.171 0.592-6 22.001-2.171-0.592 6-22.001z"/></symbol><symbol id="i-menu" viewBox="0 0 20 20"><path d="M16.4 9h-12.8c-0.552 0-0.6 0.447-0.6 1s0.048 1 0.6 1h12.8c0.552 0 0.6-0.447 0.6-1s-0.048-1-0.6-1zM16.4 13h-12.8c-0.552 0-0.6 0.447-0.6 1s0.048 1 0.6 1h12.8c0.552 0 0.6-0.447 0.6-1s-0.048-1-0.6-1zM3.6 7h12.8c0.552 0 0.6-0.447 0.6-1s-0.048-1-0.6-1h-12.8c-0.552 0-0.6 0.447-0.6 1s0.048 1 0.6 1z"/></symbol><symbol id="i-up" viewBox="0 0 24 24"><path d="M5.707 12.707l5.293-5.293v11.586c0 0.552 0.448 1 1 1s1-0.448 1-1v-11.586l5.293 5.293c0.391 0.391 1.024 0.391 1.414 0s0.391-1.024 0-1.414l-7-7c-0.092-0.092-0.202-0.166-0.324-0.217s-0.253-0.076-0.383-0.076c-0.256 0-0.512 0.098-0.707 0.293l-7 7c-0.391 0.391-0.391 1.024 0 1.414s1.024 0.391 1.414 0z"/></symbol><symbol id="i-at" viewBox="0 0 24 24"><path d="M15 12c0 0.829-0.335 1.577-0.879 2.121s-1.292 0.879-2.121 0.879-1.577-0.335-2.121-0.879-0.879-1.292-0.879-2.121 0.335-1.577 0.879-2.121 1.292-0.879 2.121-0.879 1.577 0.335 2.121 0.879 0.879 1.292 0.879 2.121zM15.74 15.318c0.13 0.182 0.274 0.353 0.431 0.51 0.723 0.723 1.725 1.172 2.829 1.172s2.106-0.449 2.828-1.172 1.172-1.724 1.172-2.828v-1c0-3.037-1.233-5.789-3.222-7.778s-4.741-3.222-7.779-3.221-5.788 1.232-7.778 3.222-3.221 4.741-3.221 7.778 1.233 5.789 3.222 7.778 4.741 3.222 7.778 3.221c2.525 0 4.855-0.852 6.69-2.269 0.437-0.337 0.518-0.965 0.18-1.403s-0.965-0.518-1.403-0.18c-1.487 1.148-3.377 1.844-5.435 1.852-2.54-0.009-4.776-1.014-6.398-2.636-1.627-1.629-2.634-3.877-2.634-6.363s1.006-4.734 2.636-6.364 3.878-2.636 6.364-2.636 4.734 1.006 6.364 2.636 2.636 3.878 2.636 6.363v1c0 0.553-0.223 1.051-0.586 1.414s-0.861 0.586-1.414 0.586-1.051-0.223-1.414-0.586-0.586-0.861-0.586-1.414v-5c0-0.552-0.448-1-1-1s-1 0.448-1 1c-0.835-0.627-1.875-1-3-1-1.38 0-2.632 0.561-3.536 1.464s-1.464 2.156-1.464 3.536 0.561 2.632 1.464 3.536 2.156 1.464 3.536 1.464 2.632-0.561 3.536-1.464c0.070-0.070 0.139-0.143 0.205-0.217z"/></symbol><symbol id="i-portfolio" viewBox="0 0 24 24"><path d="M9 6v-1c0-0.276 0.111-0.525 0.293-0.707s0.431-0.293 0.707-0.293h4c0.276 0 0.525 0.111 0.707 0.293s0.293 0.431 0.293 0.707v1zM9 20v-12h6v12zM7 8v12h-3c-0.276 0-0.525-0.111-0.707-0.293s-0.293-0.431-0.293-0.707v-10c0-0.276 0.111-0.525 0.293-0.707s0.431-0.293 0.707-0.293zM17 6v-1c0-0.828-0.337-1.58-0.879-2.121s-1.293-0.879-2.121-0.879h-4c-0.828 0-1.58 0.337-2.121 0.879s-0.879 1.293-0.879 2.121v1h-3c-0.828 0-1.58 0.337-2.121 0.879s-0.879 1.293-0.879 2.121v10c0 0.828 0.337 1.58 0.879 2.121s1.293 0.879 2.121 0.879h16c0.828 0 1.58-0.337 2.121-0.879s0.879-1.293 0.879-2.121v-10c0-0.828-0.337-1.58-0.879-2.121s-1.293-0.879-2.121-0.879zM17 20v-12h3c0.276 0 0.525 0.111 0.707 0.293s0.293 0.431 0.293 0.707v10c0 0.276-0.111 0.525-0.293 0.707s-0.431 0.293-0.707 0.293z"/></symbol><symbol id="i-skill" viewBox="0 0 24 24"><path d="M21 11.080v0.92c-0.001 2.485-1.009 4.733-2.64 6.362s-3.88 2.634-6.365 2.632-4.734-1.009-6.362-2.64-2.634-3.879-2.633-6.365 1.009-4.733 2.64-6.362 3.88-2.634 6.365-2.633c1.33 0.001 2.586 0.289 3.649 0.775 0.502 0.23 1.096 0.008 1.325-0.494s0.008-1.096-0.494-1.325c-1.327-0.606-2.866-0.955-4.479-0.956-3.037-0.002-5.789 1.229-7.78 3.217s-3.224 4.74-3.226 7.777 1.229 5.789 3.217 7.78 4.739 3.225 7.776 3.226 5.789-1.229 7.78-3.217 3.225-4.739 3.227-7.777v-0.92c0-0.552-0.448-1-1-1s-1 0.448-1 1zM21.293 3.293l-9.293 9.302-2.293-2.292c-0.391-0.391-1.024-0.391-1.414 0s-0.391 1.024 0 1.414l3 3c0.391 0.391 1.024 0.39 1.415 0l10-10.010c0.39-0.391 0.39-1.024-0.001-1.414s-1.024-0.39-1.414 0.001z"/></symbol><symbol id="i-coffee" viewBox="0 0 24 24"><path d="M19 15v-6c0.829 0 1.577 0.335 2.121 0.879s0.879 1.292 0.879 2.121-0.335 1.577-0.879 2.121-1.292 0.879-2.121 0.879zM2 7c-0.552 0-1 0.448-1 1v9c0 1.38 0.561 2.632 1.464 3.536s2.156 1.464 3.536 1.464h8c1.38 0 2.632-0.561 3.536-1.464s1.464-2.156 1.464-3.536c1.38 0 2.632-0.561 3.536-1.464s1.464-2.156 1.464-3.536-0.561-2.632-1.464-3.536-2.156-1.464-3.536-1.464h-1zM3 9h14v8c0 0.829-0.335 1.577-0.879 2.121s-1.292 0.879-2.121 0.879h-8c-0.829 0-1.577-0.335-2.121-0.879s-0.879-1.292-0.879-2.121zM5 1v3c0 0.552 0.448 1 1 1s1-0.448 1-1v-3c0-0.552-0.448-1-1-1s-1 0.448-1 1zM9 1v3c0 0.552 0.448 1 1 1s1-0.448 1-1v-3c0-0.552-0.448-1-1-1s-1 0.448-1 1zM13 1v3c0 0.552 0.448 1 1 1s1-0.448 1-1v-3c0-0.552-0.448-1-1-1s-1 0.448-1 1z"/></symbol><symbol id="i-download" viewBox="0 0 24 24"><path d="M11 12v6.586l-2.293-2.293c-0.391-0.391-1.024-0.391-1.414 0s-0.391 1.024 0 1.414l4 4c0.092 0.092 0.202 0.166 0.324 0.217 0.245 0.101 0.521 0.101 0.766 0 0.118-0.049 0.228-0.121 0.324-0.217l4-4c0.391-0.391 0.391-1.024 0-1.414s-1.024-0.391-1.414 0l-2.293 2.293v-6.586c0-0.552-0.448-1-1-1s-1 0.448-1 1zM21.455 18.908c1.355-0.953 2.196-2.367 2.46-3.878s-0.050-3.126-1.003-4.481c-0.825-1.174-1.998-1.963-3.287-2.324-0.526-0.147-1.072-0.223-1.621-0.225h-0.523c-0.722-2.058-2.137-3.71-3.907-4.758-1.981-1.172-4.412-1.589-6.819-0.972s-4.338 2.155-5.51 4.136-1.589 4.412-0.972 6.819c0.371 1.446 1.075 2.725 1.983 3.734 0.37 0.41 1.002 0.444 1.412 0.074s0.444-1.002 0.074-1.412c-0.692-0.769-1.242-1.76-1.533-2.893-0.481-1.873-0.157-3.761 0.756-5.304s2.412-2.736 4.285-3.216 3.761-0.157 5.304 0.756 2.736 2.412 3.216 4.285c0.116 0.435 0.506 0.751 0.97 0.751h1.256c0.37 0.001 0.737 0.052 1.090 0.151 0.861 0.241 1.639 0.765 2.19 1.548 0.636 0.904 0.845 1.978 0.669 2.988s-0.736 1.95-1.64 2.585c-0.452 0.318-0.56 0.941-0.243 1.393s0.941 0.56 1.393 0.243z"/></symbol><symbol id="i-home" viewBox="0 0 24 24"><path d="M2.386 8.211c-0.236 0.184-0.386 0.469-0.386 0.789v11c0 0.828 0.337 1.58 0.879 2.121s1.293 0.879 2.121 0.879h14c0.828 0 1.58-0.337 2.121-0.879s0.879-1.293 0.879-2.121v-11c-0.001-0.3-0.134-0.593-0.386-0.789l-9-7c-0.358-0.275-0.861-0.285-1.228 0zM16 21v-9c0-0.552-0.448-1-1-1h-6c-0.552 0-1 0.448-1 1v9h-3c-0.276 0-0.525-0.111-0.707-0.293s-0.293-0.431-0.293-0.707v-10.511l8-6.222 8 6.222v10.511c0 0.276-0.111 0.525-0.293 0.707s-0.431 0.293-0.707 0.293zM10 21v-8h4v8z"/></symbol><symbol id="i-hire" viewBox="0 0 24 24"><path d="M21 13v5c0 0.276-0.111 0.525-0.293 0.707s-0.431 0.293-0.707 0.293h-16c-0.276 0-0.525-0.111-0.707-0.293s-0.293-0.431-0.293-0.707v-5h4.465l1.703 2.555c0.182 0.27 0.486 0.445 0.832 0.445h4c0.326-0.002 0.64-0.158 0.832-0.445l1.703-2.555zM6.344 5.558c0.066-0.131 0.16-0.246 0.272-0.337 0.172-0.139 0.387-0.221 0.624-0.221h9.513c0.15 0.001 0.295 0.034 0.426 0.094 0.201 0.092 0.37 0.249 0.477 0.464l2.725 5.442h-4.381c-0.346 0-0.65 0.175-0.832 0.445l-1.703 2.555h-2.93l-1.703-2.555c-0.192-0.287-0.506-0.443-0.832-0.445h-4.381zM4.556 4.662l-3.441 6.872c-0.031 0.059-0.056 0.121-0.075 0.187-0.028 0.094-0.041 0.188-0.040 0.279v6c0 0.828 0.337 1.58 0.879 2.121s1.293 0.879 2.121 0.879h16c0.828 0 1.58-0.337 2.121-0.879s0.879-1.293 0.879-2.121v-6c0-0.151-0.033-0.293-0.091-0.417-0.005-0.010-0.010-0.021-0.015-0.031l-0.009-0.018-3.441-6.872c-0.315-0.634-0.829-1.111-1.433-1.387-0.388-0.177-0.812-0.272-1.244-0.275h-9.527c-0.711 0-1.367 0.249-1.883 0.667-0.331 0.268-0.605 0.606-0.801 0.995z"/></symbol><symbol id="i-location" viewBox="0 0 24 24"><path d="M22 10c0-2.761-1.12-5.263-2.929-7.071s-4.31-2.929-7.071-2.929-5.263 1.12-7.071 2.929-2.929 4.31-2.929 7.071c0 0.569 0.053 1.128 0.15 1.676 0.274 1.548 0.899 3.004 1.682 4.32 2.732 4.591 7.613 7.836 7.613 7.836 0.331 0.217 0.765 0.229 1.109 0 0 0 4.882-3.245 7.613-7.836 0.783-1.316 1.408-2.772 1.682-4.32 0.098-0.548 0.151-1.107 0.151-1.676zM20 10c0 0.444-0.041 0.887-0.119 1.328-0.221 1.25-0.737 2.478-1.432 3.646-1.912 3.214-5.036 5.747-6.369 6.74-1.398-0.916-4.588-3.477-6.53-6.74-0.695-1.168-1.211-2.396-1.432-3.646-0.077-0.441-0.118-0.884-0.118-1.328 0-2.209 0.894-4.208 2.343-5.657s3.448-2.343 5.657-2.343 4.208 0.894 5.657 2.343 2.343 3.448 2.343 5.657zM16 10c0-1.104-0.449-2.106-1.172-2.828s-1.724-1.172-2.828-1.172-2.106 0.449-2.828 1.172-1.172 1.724-1.172 2.828 0.449 2.106 1.172 2.828 1.724 1.172 2.828 1.172 2.106-0.449 2.828-1.172 1.172-1.724 1.172-2.828zM14 10c0 0.553-0.223 1.051-0.586 1.414s-0.861 0.586-1.414 0.586-1.051-0.223-1.414-0.586-0.586-0.861-0.586-1.414 0.223-1.051 0.586-1.414 0.861-0.586 1.414-0.586 1.051 0.223 1.414 0.586 0.586 0.861 0.586 1.414z"/></symbol><symbol id="i-project" viewBox="0 0 24 24"><path d="M20.733 10.343l-9.19 9.19c-0.977 0.977-2.256 1.465-3.538 1.465s-2.561-0.488-3.538-1.465-1.465-2.256-1.465-3.538 0.488-2.561 1.465-3.538l9.19-9.19c0.586-0.586 1.353-0.879 2.123-0.879s1.536 0.293 2.123 0.879 0.879 1.353 0.879 2.123-0.293 1.536-0.879 2.123l-9.2 9.19c-0.196 0.196-0.451 0.294-0.708 0.294s-0.512-0.098-0.708-0.293-0.293-0.45-0.293-0.708 0.098-0.512 0.293-0.708l8.49-8.48c0.391-0.39 0.391-1.023 0.001-1.414s-1.023-0.391-1.414-0.001l-8.49 8.48c-0.586 0.586-0.879 1.356-0.879 2.122s0.293 1.536 0.879 2.122 1.356 0.879 2.122 0.879 1.536-0.293 2.122-0.879l9.2-9.19c0.977-0.977 1.465-2.258 1.465-3.537s-0.489-2.561-1.465-3.537-2.258-1.465-3.537-1.465-2.561 0.489-3.537 1.465l-9.19 9.19c-1.367 1.367-2.051 3.161-2.051 4.952s0.684 3.585 2.051 4.952 3.161 2.051 4.952 2.051 3.585-0.684 4.952-2.051l9.19-9.19c0.391-0.391 0.391-1.024 0-1.414s-1.024-0.391-1.414 0z"/></symbol><symbol id="i-phone" viewBox="0 0 24 24"><path d="M23 16.92c0.016-0.714-0.236-1.404-0.673-1.943-0.46-0.566-1.129-0.967-1.925-1.080-0.8-0.098-1.695-0.314-2.586-0.646-0.433-0.159-0.893-0.218-1.344-0.174-0.663 0.064-1.307 0.349-1.819 0.855l-0.72 0.72c-1.77-1.117-3.36-2.667-4.583-4.589l0.726-0.726c0.322-0.33 0.563-0.726 0.707-1.156 0.212-0.632 0.214-1.336-0.039-2.011-0.289-0.753-0.518-1.644-0.644-2.595-0.104-0.714-0.456-1.345-0.963-1.804-0.539-0.486-1.256-0.779-2.027-0.771h-2.996c-0.088 0-0.182 0.004-0.273 0.012-0.824 0.075-1.542 0.478-2.033 1.066s-0.758 1.367-0.683 2.199c0.3 3.076 1.365 6.243 3.216 9.102 1.502 2.413 3.648 4.623 6.298 6.306 2.568 1.697 5.684 2.862 9.086 3.231 0.092 0.009 0.191 0.013 0.288 0.013 0.828-0.003 1.578-0.343 2.118-0.887s0.873-1.297 0.87-2.121zM21 16.92v3c0.001 0.28-0.109 0.53-0.29 0.712s-0.429 0.295-0.706 0.296c-3.149-0.336-5.961-1.391-8.263-2.912-2.428-1.543-4.359-3.537-5.702-5.694-1.697-2.62-2.655-5.481-2.924-8.238-0.024-0.268 0.064-0.526 0.229-0.724s0.403-0.33 0.678-0.355l3.088-0.005c0.271-0.003 0.507 0.094 0.687 0.256 0.17 0.154 0.288 0.366 0.323 0.608 0.142 1.072 0.408 2.117 0.757 3.025 0.081 0.216 0.080 0.447 0.010 0.658-0.049 0.145-0.131 0.281-0.242 0.395l-1.262 1.261c-0.324 0.324-0.379 0.814-0.162 1.201 1.584 2.785 3.839 4.957 6.381 6.378 0.397 0.222 0.882 0.144 1.195-0.166l1.27-1.27c0.166-0.164 0.377-0.257 0.598-0.279 0.152-0.015 0.31 0.005 0.459 0.060 1.022 0.381 2.070 0.636 3.034 0.754 0.241 0.034 0.462 0.166 0.615 0.355 0.147 0.181 0.231 0.412 0.226 0.682z"/></symbol><symbol id="i-plus" viewBox="0 0 24 24"><path d="M5 13h6v6c0 0.552 0.448 1 1 1s1-0.448 1-1v-6h6c0.552 0 1-0.448 1-1s-0.448-1-1-1h-6v-6c0-0.552-0.448-1-1-1s-1 0.448-1 1v6h-6c-0.552 0-1 0.448-1 1s0.448 1 1 1z"/></symbol><symbol id="i-smile" viewBox="0 0 24 24"><path d="M23 12c0-3.037-1.232-5.789-3.222-7.778s-4.741-3.222-7.778-3.222-5.789 1.232-7.778 3.222-3.222 4.741-3.222 7.778 1.232 5.789 3.222 7.778 4.741 3.222 7.778 3.222 5.789-1.232 7.778-3.222 3.222-4.741 3.222-7.778zM21 12c0 2.486-1.006 4.734-2.636 6.364s-3.878 2.636-6.364 2.636-4.734-1.006-6.364-2.636-2.636-3.878-2.636-6.364 1.006-4.734 2.636-6.364 3.878-2.636 6.364-2.636 4.734 1.006 6.364 2.636 2.636 3.878 2.636 6.364zM7.2 14.6c0 0 0.131 0.173 0.331 0.383 0.145 0.153 0.338 0.341 0.577 0.54 0.337 0.281 0.772 0.59 1.297 0.853 0.705 0.352 1.579 0.624 2.595 0.624s1.89-0.272 2.595-0.624c0.525-0.263 0.96-0.572 1.297-0.853 0.239-0.199 0.432-0.387 0.577-0.54 0.2-0.21 0.331-0.383 0.331-0.383 0.331-0.442 0.242-1.069-0.2-1.4s-1.069-0.242-1.4 0.2c-0.041 0.050-0.181 0.206-0.181 0.206-0.1 0.105-0.237 0.239-0.408 0.382-0.243 0.203-0.549 0.419-0.91 0.6-0.48 0.239-1.050 0.412-1.701 0.412s-1.221-0.173-1.701-0.413c-0.36-0.18-0.667-0.397-0.91-0.6-0.171-0.143-0.308-0.277-0.408-0.382-0.14-0.155-0.181-0.205-0.181-0.205-0.331-0.442-0.958-0.531-1.4-0.2s-0.531 0.958-0.2 1.4zM9 10c0.552 0 1-0.448 1-1s-0.448-1-1-1-1 0.448-1 1 0.448 1 1 1zM15 10c0.552 0 1-0.448 1-1s-0.448-1-1-1-1 0.448-1 1 0.448 1 1 1z"/></symbol><symbol id="i-thumbs-up" viewBox="0 0 24 24"><path d="M13 9c0 0.552 0.448 1 1 1h5.679c0.065 0.002 0.153 0.011 0.153 0.011 0.273 0.041 0.502 0.188 0.655 0.396s0.225 0.47 0.184 0.742l-1.38 8.998c-0.037 0.239-0.156 0.448-0.325 0.6-0.18 0.161-0.415 0.256-0.686 0.253h-10.28v-9.788l3.608-8.118c0.307 0.098 0.582 0.268 0.806 0.492 0.363 0.363 0.586 0.861 0.586 1.414zM15 8v-3c0-1.104-0.449-2.106-1.172-2.828s-1.724-1.172-2.828-1.172c-0.405 0-0.754 0.241-0.914 0.594l-4 9c-0.060 0.134-0.087 0.275-0.086 0.406v11c0 0.552 0.448 1 1 1h11.28c0.767 0.009 1.482-0.281 2.021-0.763 0.505-0.452 0.857-1.076 0.967-1.783l1.38-9.002c0.125-0.82-0.096-1.614-0.55-2.231s-1.147-1.063-1.965-1.187c-0.165-0.025-0.333-0.037-0.492-0.034zM7 21h-3c-0.276 0-0.525-0.111-0.707-0.293s-0.293-0.431-0.293-0.707v-7c0-0.276 0.111-0.525 0.293-0.707s0.431-0.293 0.707-0.293h3c0.552 0 1-0.448 1-1s-0.448-1-1-1h-3c-0.828 0-1.58 0.337-2.121 0.879s-0.879 1.293-0.879 2.121v7c0 0.828 0.337 1.58 0.879 2.121s1.293 0.879 2.121 0.879h3c0.552 0 1-0.448 1-1s-0.448-1-1-1z"/></symbol><symbol id="i-profile" viewBox="0 0 24 24"><path d="M21 21v-2c0-1.38-0.561-2.632-1.464-3.536s-2.156-1.464-3.536-1.464h-8c-1.38 0-2.632 0.561-3.536 1.464s-1.464 2.156-1.464 3.536v2c0 0.552 0.448 1 1 1s1-0.448 1-1v-2c0-0.829 0.335-1.577 0.879-2.121s1.292-0.879 2.121-0.879h8c0.829 0 1.577 0.335 2.121 0.879s0.879 1.292 0.879 2.121v2c0 0.552 0.448 1 1 1s1-0.448 1-1zM17 7c0-1.38-0.561-2.632-1.464-3.536s-2.156-1.464-3.536-1.464-2.632 0.561-3.536 1.464-1.464 2.156-1.464 3.536 0.561 2.632 1.464 3.536 2.156 1.464 3.536 1.464 2.632-0.561 3.536-1.464 1.464-2.156 1.464-3.536zM15 7c0 0.829-0.335 1.577-0.879 2.121s-1.292 0.879-2.121 0.879-1.577-0.335-2.121-0.879-0.879-1.292-0.879-2.121 0.335-1.577 0.879-2.121 1.292-0.879 2.121-0.879 1.577 0.335 2.121 0.879 0.879 1.292 0.879 2.121z"/></symbol><symbol id="i-certificate" viewBox="0 0 32 32"><path d="M28.681 7.159c-0.694-0.947-1.662-2.053-2.724-3.116s-2.169-2.030-3.116-2.724c-1.612-1.182-2.393-1.319-2.841-1.319h-15.5c-1.378 0-2.5 1.121-2.5 2.5v27c0 1.378 1.122 2.5 2.5 2.5h23c1.378 0 2.5-1.122 2.5-2.5v-19.5c0-0.448-0.137-1.23-1.319-2.841zM24.543 5.457c0.959 0.959 1.712 1.825 2.268 2.543h-4.811v-4.811c0.718 0.556 1.584 1.309 2.543 2.268zM28 29.5c0 0.271-0.229 0.5-0.5 0.5h-23c-0.271 0-0.5-0.229-0.5-0.5v-27c0-0.271 0.229-0.5 0.5-0.5 0 0 15.499-0 15.5 0v7c0 0.552 0.448 1 1 1h7v19.5z"/><path d="M23 26h-14c-0.552 0-1-0.448-1-1s0.448-1 1-1h14c0.552 0 1 0.448 1 1s-0.448 1-1 1z"/><path d="M23 22h-14c-0.552 0-1-0.448-1-1s0.448-1 1-1h14c0.552 0 1 0.448 1 1s-0.448 1-1 1z"/><path d="M23 18h-14c-0.552 0-1-0.448-1-1s0.448-1 1-1h14c0.552 0 1 0.448 1 1s-0.448 1-1 1z"/></symbol><symbol id="i-facebook" viewBox="0 0 32 32"><path d="M19 6h5v-6h-5c-3.86 0-7 3.14-7 7v3h-4v6h4v16h6v-16h5l1-6h-6v-3c0-0.542 0.458-1 1-1z"/></symbol><symbol id="i-instagram" viewBox="0 0 32 32"><path d="M16 2.881c4.275 0 4.781 0.019 6.462 0.094 1.563 0.069 2.406 0.331 2.969 0.55 0.744 0.288 1.281 0.638 1.837 1.194 0.563 0.563 0.906 1.094 1.2 1.838 0.219 0.563 0.481 1.412 0.55 2.969 0.075 1.688 0.094 2.194 0.094 6.463s-0.019 4.781-0.094 6.463c-0.069 1.563-0.331 2.406-0.55 2.969-0.288 0.744-0.637 1.281-1.194 1.837-0.563 0.563-1.094 0.906-1.837 1.2-0.563 0.219-1.413 0.481-2.969 0.55-1.688 0.075-2.194 0.094-6.463 0.094s-4.781-0.019-6.463-0.094c-1.563-0.069-2.406-0.331-2.969-0.55-0.744-0.288-1.281-0.637-1.838-1.194-0.563-0.563-0.906-1.094-1.2-1.837-0.219-0.563-0.481-1.413-0.55-2.969-0.075-1.688-0.094-2.194-0.094-6.463s0.019-4.781 0.094-6.463c0.069-1.563 0.331-2.406 0.55-2.969 0.288-0.744 0.638-1.281 1.194-1.838 0.563-0.563 1.094-0.906 1.838-1.2 0.563-0.219 1.412-0.481 2.969-0.55 1.681-0.075 2.188-0.094 6.463-0.094zM16 0c-4.344 0-4.887 0.019-6.594 0.094-1.7 0.075-2.869 0.35-3.881 0.744-1.056 0.412-1.95 0.956-2.837 1.85-0.894 0.888-1.438 1.781-1.85 2.831-0.394 1.019-0.669 2.181-0.744 3.881-0.075 1.713-0.094 2.256-0.094 6.6s0.019 4.887 0.094 6.594c0.075 1.7 0.35 2.869 0.744 3.881 0.413 1.056 0.956 1.95 1.85 2.837 0.887 0.887 1.781 1.438 2.831 1.844 1.019 0.394 2.181 0.669 3.881 0.744 1.706 0.075 2.25 0.094 6.594 0.094s4.888-0.019 6.594-0.094c1.7-0.075 2.869-0.35 3.881-0.744 1.050-0.406 1.944-0.956 2.831-1.844s1.438-1.781 1.844-2.831c0.394-1.019 0.669-2.181 0.744-3.881 0.075-1.706 0.094-2.25 0.094-6.594s-0.019-4.887-0.094-6.594c-0.075-1.7-0.35-2.869-0.744-3.881-0.394-1.063-0.938-1.956-1.831-2.844-0.887-0.887-1.781-1.438-2.831-1.844-1.019-0.394-2.181-0.669-3.881-0.744-1.712-0.081-2.256-0.1-6.6-0.1v0z"/><path d="M16 7.781c-4.537 0-8.219 3.681-8.219 8.219s3.681 8.219 8.219 8.219 8.219-3.681 8.219-8.219c0-4.537-3.681-8.219-8.219-8.219zM16 21.331c-2.944 0-5.331-2.387-5.331-5.331s2.387-5.331 5.331-5.331c2.944 0 5.331 2.387 5.331 5.331s-2.387 5.331-5.331 5.331z"/><path d="M26.462 7.456c0 1.060-0.859 1.919-1.919 1.919s-1.919-0.859-1.919-1.919c0-1.060 0.859-1.919 1.919-1.919s1.919 0.859 1.919 1.919z"/></symbol><symbol id="i-telegram" viewBox="0 0 32 32"><path d="M16 0c-8.838 0-16 7.162-16 16s7.162 16 16 16 16-7.163 16-16-7.163-16-16-16zM23.863 10.969l-2.625 12.369c-0.181 0.881-0.712 1.087-1.45 0.681l-4-2.956-1.919 1.869c-0.225 0.219-0.4 0.4-0.8 0.4-0.519 0-0.431-0.194-0.606-0.688l-1.363-4.475-3.956-1.231c-0.856-0.262-0.862-0.85 0.194-1.269l15.412-5.95c0.7-0.319 1.381 0.169 1.113 1.25z"/></symbol><symbol id="i-github" viewBox="0 0 32 32"><path d="M16 0.395c-8.836 0-16 7.163-16 16 0 7.069 4.585 13.067 10.942 15.182 0.8 0.148 1.094-0.347 1.094-0.77 0-0.381-0.015-1.642-0.022-2.979-4.452 0.968-5.391-1.888-5.391-1.888-0.728-1.849-1.776-2.341-1.776-2.341-1.452-0.993 0.11-0.973 0.11-0.973 1.606 0.113 2.452 1.649 2.452 1.649 1.427 2.446 3.743 1.739 4.656 1.33 0.143-1.034 0.558-1.74 1.016-2.14-3.554-0.404-7.29-1.777-7.29-7.907 0-1.747 0.625-3.174 1.649-4.295-0.166-0.403-0.714-2.030 0.155-4.234 0 0 1.344-0.43 4.401 1.64 1.276-0.355 2.645-0.532 4.005-0.539 1.359 0.006 2.729 0.184 4.008 0.539 3.054-2.070 4.395-1.64 4.395-1.64 0.871 2.204 0.323 3.831 0.157 4.234 1.026 1.12 1.647 2.548 1.647 4.295 0 6.145-3.743 7.498-7.306 7.895 0.574 0.497 1.085 1.47 1.085 2.963 0 2.141-0.019 3.864-0.019 4.391 0 0.426 0.288 0.925 1.099 0.768 6.354-2.118 10.933-8.113 10.933-15.18 0-8.837-7.164-16-16-16z"/></symbol><symbol id="i-star-empty" viewBox="0 0 32 32"><path d="M32 12.408l-11.056-1.607-4.944-10.018-4.944 10.018-11.056 1.607 8 7.798-1.889 11.011 9.889-5.199 9.889 5.199-1.889-11.011 8-7.798zM16 23.547l-6.983 3.671 1.334-7.776-5.65-5.507 7.808-1.134 3.492-7.075 3.492 7.075 7.807 1.134-5.65 5.507 1.334 7.776-6.983-3.671z"/></symbol><symbol id="i-star-half" viewBox="0 0 32 32"><path d="M32 12.408l-11.056-1.607-4.944-10.018-4.944 10.018-11.056 1.607 8 7.798-1.889 11.011 9.889-5.199 9.889 5.199-1.889-11.011 8-7.798zM16 23.547l-0.029 0.015 0.029-17.837 3.492 7.075 7.807 1.134-5.65 5.507 1.334 7.776-6.983-3.671z"/></symbol><symbol id="i-star-full" viewBox="0 0 32 32"><path d="M32 12.408l-11.056-1.607-4.944-10.018-4.944 10.018-11.056 1.607 8 7.798-1.889 11.011 9.889-5.199 9.889 5.199-1.889-11.011 8-7.798z"/></symbol><symbol id="i-linkedin" viewBox="0 0 24 24"><path d="M19 0h-14c-2.761 0-5 2.239-5 5v14c0 2.761 2.239 5 5 5h14c2.762 0 5-2.239 5-5v-14c0-2.761-2.238-5-5-5zm-11 19h-3v-11h3v11zm-1.5-12.268c-.966 0-1.75-.79-1.75-1.764s.784-1.764 1.75-1.764 1.75.79 1.75 1.764-.783 1.764-1.75 1.764zm13.5 12.268h-3v-5.604c0-3.368-4-3.113-4 0v5.604h-3v-11h3v1.765c1.396-2.586 7-2.777 7 2.476v6.759z"/></symbol></defs></svg>